<svg width="424" height="302" viewBox="0 0 424 302" fill="none" xmlns="http://www.w3.org/2000/svg">
<path d="M128.76 242.959C142.036 242.959 152.798 233.11 152.798 220.961C152.798 208.812 142.036 198.963 128.76 198.963C115.484 198.963 104.722 208.812 104.722 220.961C104.722 233.11 115.484 242.959 128.76 242.959Z" fill="#004667"/>
<path d="M298.689 252.869C306.97 252.869 313.683 246.726 313.683 239.148C313.683 231.57 306.97 225.426 298.689 225.426C290.408 225.426 283.695 231.57 283.695 239.148C283.695 246.726 290.408 252.869 298.689 252.869Z" fill="#004667"/>
<path d="M238.598 131.661C238.598 131.661 236.932 103.238 222.89 91.4763C208.73 79.715 190.404 76.5569 170.055 71.1119C149.825 65.6669 93.539 50.7476 116.863 0C116.863 0 129.953 30.1654 166.128 40.8376C202.304 51.5099 244.667 58.0439 253.949 98.337C253.949 98.337 268.705 78.5171 295.48 82.2198C322.254 85.9224 364.499 104.653 381.397 104.327C398.294 104 411.86 100.188 423.403 87.3381C423.403 87.3381 416.263 122.186 398.889 126.869C381.516 131.552 359.62 125.235 347.482 122.186C335.463 119.137 295.123 102.693 269.062 112.276C247.523 120.117 238.598 131.661 238.598 131.661Z" fill="#004667"/>
<path d="M211.106 277.588L203.967 268.767C201.23 271.054 196.232 275.192 191.472 278.459L210.154 301.546L231.098 279.331C227.409 275.519 224.077 271.381 221.102 266.916L211.106 277.588Z" fill="#004667"/>
<path d="M306.188 133.84C280.722 133.84 257.517 143.423 240.857 158.778C242.761 164.877 244.07 171.193 244.784 177.618C258.469 160.194 280.841 148.76 306.188 148.76C347.837 148.76 381.752 179.796 381.752 217.911C381.752 256.026 347.837 287.063 306.188 287.063C264.538 287.063 230.623 256.026 230.623 217.911C230.623 214.971 230.861 212.031 231.218 209.199C231.099 209.199 231.099 209.199 230.98 209.09C232.17 202.883 232.884 196.567 232.884 190.033C232.884 131.444 180.763 83.7461 116.742 83.7461C52.7205 83.7461 0.599121 131.444 0.599121 190.033C0.599121 248.621 52.7205 296.32 116.742 296.32C142.802 296.32 166.721 288.37 186.118 275.193C188.022 273.777 195.876 267.788 200.041 263.976C203.254 260.927 206.348 257.769 209.085 254.393C206.348 248.403 204.325 242.196 203.016 235.771C185.761 263.105 153.512 281.509 116.623 281.509C61.5264 281.509 16.7829 240.563 16.7829 190.142C16.7829 139.721 61.5264 98.7743 116.623 98.7743C171.6 98.7743 216.344 139.721 216.344 190.142C216.344 195.587 215.868 200.923 214.797 206.041C214.916 206.041 214.916 206.041 215.035 206.15C214.44 209.962 214.202 213.991 214.202 217.911C214.202 264.303 255.375 301.982 306.068 301.982C356.762 301.982 397.935 264.303 397.935 217.911C398.054 171.52 356.881 133.84 306.188 133.84Z" fill="#004667"/>
</svg>
