<svg class="rf-main-logo logo-xs" xmlns="http://www.w3.org/2000/svg" viewBox="0 0 40 51.85"><defs><style>.cls__11{fill:#5690ff;opacity:0.47;isolation:isolate;}.cls__22{fill:url(#linear-gradient1);}}</style><linearGradient id="linear-gradient1" y1="-125.92" x2="39.99" y2="-125.92" gradientTransform="matrix(1, 0, 0, -1, 0, -100)" gradientUnits="userSpaceOnUse"><stop offset="0" stop-color="#5690ff" stop-opacity="0.99"></stop><stop offset="1" stop-color="#0052e0"></stop></linearGradient></defs><path class="cls__11" d="M37.78,23.81l-9.1-6L3.74,2.46A22.66,22.66,0,0,1,8.07,9.67,24,24,0,0,1,9.43,15l18.7,11.72a1.53,1.53,0,0,1,.39,2.13l-.07.09h0l-.07.08-.08.08h-.05l-.13.1-18.06,11a1.08,1.08,0,0,1-1.51-.29,1.1,1.1,0,0,1-.19-.61V14.21A23.76,23.76,0,0,0,7.15,9.67,21.22,21.22,0,0,0,.59.39L0,0V47.22a4.63,4.63,0,0,0,7.17,3.86L37.78,32a4.9,4.9,0,0,0,0-8.19Z"></path><path class="cls__22" d="M37.78,23.81l-9.1-6a7.08,7.08,0,0,1,1,10,6.93,6.93,0,0,1-1.2,1.16h0l-.07.08-.08.08h0l-.13.1-13,7.66h0l-5,3.39A1.08,1.08,0,0,1,8.62,40a1.1,1.1,0,0,1-.19-.61V14.25A23.41,23.41,0,0,0,7.15,9.67,21.22,21.22,0,0,0,.59.39L0,0V47.22a4.63,4.63,0,0,0,7.17,3.86L37.78,32a4.9,4.9,0,0,0,0-8.19Z"></path></svg>