<?xml version="1.0" standalone="no"?>
<!DOCTYPE svg PUBLIC "-//W3C//DTD SVG 20010904//EN"
 "http://www.w3.org/TR/2001/REC-SVG-20010904/DTD/svg10.dtd">
<svg version="1.0" xmlns="http://www.w3.org/2000/svg"
 width="512.000000pt" height="512.000000pt" viewBox="0 0 512.000000 512.000000"
 preserveAspectRatio="xMidYMid meet">

<g transform="translate(0.000000,512.000000) scale(0.100000,-0.100000)"
fill="#ED238D" stroke="none">
<path d="M632 3840 c-161 -21 -294 -106 -354 -227 -28 -58 -33 -79 -36 -162
-5 -127 13 -191 76 -266 65 -77 159 -122 379 -179 95 -25 191 -55 213 -66 55
-28 82 -73 77 -127 -10 -96 -88 -147 -227 -148 -75 0 -91 3 -136 28 -53 30
-86 74 -99 135 l-7 32 -149 0 -149 0 0 -50 c0 -150 118 -316 270 -382 112 -48
318 -64 448 -33 221 52 362 220 362 430 0 112 -41 216 -108 277 -84 76 -162
110 -384 169 -162 42 -215 65 -247 105 -70 89 28 194 180 194 115 0 194 -57
214 -152 l5 -28 146 0 c112 0 146 3 150 13 10 26 -15 140 -44 201 -52 108
-153 188 -277 220 -79 20 -212 27 -303 16z"/>
<path d="M2021 3840 c-355 -75 -600 -371 -601 -727 0 -290 164 -548 426 -669
102 -47 189 -66 315 -65 208 0 364 66 514 216 152 151 216 307 216 525 -1 324
-207 599 -526 700 -79 25 -268 36 -344 20z m322 -333 c387 -183 307 -750 -117
-828 -184 -34 -388 74 -468 248 -57 123 -50 287 16 404 53 93 171 183 272 208
22 6 80 9 129 8 81 -2 99 -7 168 -40z"/>
<path d="M3030 3109 l0 -710 153 3 152 3 3 273 2 272 240 0 240 0 0 135 0 135
-240 0 -240 0 0 160 0 160 445 0 445 0 0 140 0 140 -600 0 -600 0 0 -711z"/>
<path d="M4544 3807 c-2 -7 -3 -69 -2 -138 l3 -124 193 -3 192 -2 0 140 0 140
-190 0 c-148 0 -192 -3 -196 -13z"/>
<path d="M4240 2965 l0 -566 150 2 150 1 0 564 0 564 -150 0 -150 0 0 -565z"/>
<path d="M437 2230 c-131 -33 -217 -148 -220 -292 -3 -185 105 -305 284 -316
128 -7 210 31 271 127 33 52 35 71 9 71 -11 0 -23 -12 -31 -30 -16 -38 -78
-95 -127 -116 -52 -22 -173 -15 -228 13 -84 44 -126 114 -133 220 -6 91 17
160 71 214 43 43 128 79 186 79 92 0 183 -49 223 -120 22 -39 58 -55 58 -26 0
18 -46 86 -79 115 -62 56 -191 84 -284 61z"/>
<path d="M1043 2222 c-74 -26 -136 -81 -170 -150 -24 -49 -28 -69 -28 -142 0
-130 47 -215 155 -278 37 -22 59 -27 136 -30 82 -4 98 -2 146 20 74 34 122 79
155 145 38 78 38 193 1 275 -30 64 -83 119 -146 149 -63 31 -179 36 -249 11z
m211 -42 c107 -41 166 -133 166 -261 0 -115 -75 -220 -178 -249 -154 -42 -302
33 -347 176 -69 220 141 415 359 334z"/>
<path d="M2190 2229 c-75 -23 -120 -80 -120 -154 0 -81 48 -123 176 -153 145
-35 184 -63 184 -130 0 -51 -26 -91 -73 -113 -105 -47 -235 0 -254 92 -8 40
-43 41 -43 2 0 -40 33 -88 81 -120 38 -25 52 -28 123 -28 138 0 206 54 206
165 0 94 -33 122 -188 164 -148 40 -180 67 -168 146 7 43 42 75 98 91 86 23
175 -16 198 -86 8 -25 17 -35 32 -35 16 0 19 5 14 23 -3 12 -6 27 -6 34 0 18
-49 72 -81 88 -37 20 -135 27 -179 14z"/>
<path d="M4155 2226 c-66 -21 -101 -43 -144 -92 -54 -62 -75 -132 -69 -233 7
-120 59 -201 163 -252 61 -30 69 -31 152 -27 64 3 99 10 129 26 48 25 118 100
133 142 9 27 8 30 -9 30 -11 0 -26 -12 -34 -28 -22 -42 -98 -108 -141 -122
-50 -16 -170 -8 -215 14 -47 24 -88 70 -118 135 -21 47 -24 63 -19 126 6 86
30 137 85 187 77 70 206 87 299 39 43 -21 113 -95 113 -118 0 -7 9 -13 20 -13
26 0 25 20 -1 65 -62 104 -221 160 -344 121z"/>
<path d="M1520 1930 c0 -165 2 -300 4 -300 2 0 11 -3 20 -6 14 -5 16 23 18
261 l3 266 36 -48 c56 -75 289 -394 318 -435 25 -35 53 -52 65 -40 3 3 6 137
6 299 0 255 -2 294 -15 300 -9 3 -19 2 -23 -1 -3 -4 -5 -119 -4 -256 1 -138
-2 -250 -7 -250 -9 0 -52 57 -221 290 -155 214 -160 220 -180 220 -19 0 -20
-8 -20 -300z"/>
<path d="M2462 2213 c3 -15 17 -18 101 -21 l97 -3 0 -279 c0 -273 0 -280 20
-280 20 0 20 7 20 280 l0 280 95 0 c88 0 95 1 95 20 0 19 -7 20 -216 20 -200
0 -215 -1 -212 -17z"/>
<path d="M2940 1931 c0 -247 2 -300 14 -304 8 -3 17 -3 20 0 3 4 6 62 6 130
l0 124 87 -3 87 -3 72 -120 c59 -99 75 -121 97 -123 28 -3 31 -10 -105 215
l-19 33 40 16 c138 55 145 244 11 312 -39 19 -59 22 -177 22 l-133 0 0 -299z
m284 245 c52 -22 76 -60 76 -121 0 -38 -6 -60 -21 -79 -37 -47 -68 -56 -189
-56 l-110 0 0 135 0 135 105 0 c67 0 118 -5 139 -14z"/>
<path d="M3418 2213 c-9 -36 3 -419 13 -451 15 -47 66 -102 114 -123 48 -22
142 -25 188 -6 49 21 98 67 118 112 16 35 19 68 19 263 0 208 -1 223 -17 220
-16 -3 -18 -24 -23 -223 -5 -235 -9 -253 -62 -302 -31 -29 -70 -43 -123 -43
-55 0 -92 14 -128 48 -58 55 -61 67 -60 305 0 199 -2 217 -17 217 -10 0 -20
-8 -22 -17z"/>
<path d="M4502 2213 c3 -15 17 -18 101 -21 l97 -3 0 -279 c0 -273 0 -280 20
-280 20 0 20 7 20 280 l0 280 95 0 c88 0 95 1 95 20 0 19 -7 20 -216 20 -200
0 -215 -1 -212 -17z"/>
</g>
</svg>
