<svg width="426" height="289" viewBox="0 0 426 289" fill="none" xmlns="http://www.w3.org/2000/svg">
<path d="M145.35 124.978L48 51V237.296H86.0081V126.944L145.35 169.954L204.691 126.944V237.296H242.454V51L145.35 124.978Z" fill="#1E252C"/>
<path fill-rule="evenodd" clip-rule="evenodd" d="M342.619 194.343C336.686 199.938 328.164 202.346 319.643 202.346C315.964 202.346 312.531 202.1 309.344 200.871L378.494 151.225C370.892 128.122 347.352 107.477 316.7 107.477C281.144 107.477 252.454 136.479 252.454 172.362C252.454 207.753 282.37 237 319.643 237C339.494 237 359.146 228.847 370.57 215.761L342.619 194.343ZM316.7 142.377C300.761 142.377 287.765 154.912 287.765 172.362C287.765 175.311 288.01 178.014 288.746 180.472L333.865 148.276C328.961 144.589 323.321 142.377 316.7 142.377Z" fill="#1E252C"/>
<path fill-rule="evenodd" clip-rule="evenodd" d="M2 0H0V2V20V22H2H9V267H2H0V269V287V289H2H20H22V287V280H404V287V289H406H424H426V287V269V267H424H417V22H424H426V20V2V0H424H406H404V2V9H22V2V0H20H2ZM22 13V20V22H20H13V267H20H22V269V276H404V269V267H406H413V22H406H404V20V13H22ZM4 18V4H18V18H4ZM408 18V4H422V18H408ZM4 271V285H18V271H4ZM408 271V285H422V271H408Z" fill="#1E252C"/>
</svg>
